<svg id="visual" viewBox="0 0 900 600" width="900" height="600" xmlns="http://www.w3.org/2000/svg" xmlns:xlink="http://www.w3.org/1999/xlink" version="1.1"><rect x="0" y="0" width="900" height="600" fill="#FFFFFF"></rect><defs><linearGradient id="grad1_0" x1="33.3%" y1="0%" x2="100%" y2="100%"><stop offset="20%" stop-color="#ffffff" stop-opacity="1"></stop><stop offset="80%" stop-color="#ffffff" stop-opacity="1"></stop></linearGradient></defs><defs><linearGradient id="grad2_0" x1="0%" y1="0%" x2="66.7%" y2="100%"><stop offset="20%" stop-color="#ffffff" stop-opacity="1"></stop><stop offset="80%" stop-color="#ffffff" stop-opacity="1"></stop></linearGradient></defs><g transform="translate(900, 0)"><path d="M0 486.7C-72.9 488.9 -145.7 491 -186.3 449.7C-226.8 408.4 -235 323.8 -276.5 276.5C-318 229.2 -392.7 219.3 -433.3 179.5C-473.9 139.6 -480.3 69.8 -486.7 0L0 0Z" fill="#0066FF"></path></g><g transform="translate(0, 600)"><path d="M0 -486.7C61.8 -461.3 123.6 -435.9 164.9 -398.2C206.2 -360.5 227 -310.6 277.9 -277.9C328.8 -245.2 409.9 -229.7 449.7 -186.3C489.5 -142.8 488.1 -71.4 486.7 0L0 0Z" fill="#0066FF"></path></g></svg>