<svg id="visual" viewBox="0 0 900 600" width="900" height="600" xmlns="http://www.w3.org/2000/svg" xmlns:xlink="http://www.w3.org/1999/xlink" version="1.1"><rect x="0" y="0" width="900" height="600" fill="#FFFFFF"></rect><path d="M0 353L21.5 355.7C43 358.3 86 363.7 128.8 375.3C171.7 387 214.3 405 257.2 405C300 405 343 387 385.8 387.3C428.7 387.7 471.3 406.3 514.2 416.2C557 426 600 427 642.8 430.5C685.7 434 728.3 440 771.2 430.7C814 421.3 857 396.7 878.5 384.3L900 372L900 601L878.5 601C857 601 814 601 771.2 601C728.3 601 685.7 601 642.8 601C600 601 557 601 514.2 601C471.3 601 428.7 601 385.8 601C343 601 300 601 257.2 601C214.3 601 171.7 601 128.8 601C86 601 43 601 21.5 601L0 601Z" fill="#fa7268"></path><path d="M0 448L21.5 445.8C43 443.7 86 439.3 128.8 438.8C171.7 438.3 214.3 441.7 257.2 448.7C300 455.7 343 466.3 385.8 468.7C428.7 471 471.3 465 514.2 465.2C557 465.3 600 471.7 642.8 470.8C685.7 470 728.3 462 771.2 453.3C814 444.7 857 435.3 878.5 430.7L900 426L900 601L878.5 601C857 601 814 601 771.2 601C728.3 601 685.7 601 642.8 601C600 601 557 601 514.2 601C471.3 601 428.7 601 385.8 601C343 601 300 601 257.2 601C214.3 601 171.7 601 128.8 601C86 601 43 601 21.5 601L0 601Z" fill="#ef5f67"></path><path d="M0 495L21.5 488.8C43 482.7 86 470.3 128.8 472.7C171.7 475 214.3 492 257.2 499.5C300 507 343 505 385.8 501.5C428.7 498 471.3 493 514.2 484.3C557 475.7 600 463.3 642.8 456.5C685.7 449.7 728.3 448.3 771.2 452.7C814 457 857 467 878.5 472L900 477L900 601L878.5 601C857 601 814 601 771.2 601C728.3 601 685.7 601 642.8 601C600 601 557 601 514.2 601C471.3 601 428.7 601 385.8 601C343 601 300 601 257.2 601C214.3 601 171.7 601 128.8 601C86 601 43 601 21.5 601L0 601Z" fill="#e34c67"></path><path d="M0 528L21.5 527.3C43 526.7 86 525.3 128.8 518.7C171.7 512 214.3 500 257.2 496.7C300 493.3 343 498.7 385.8 498.5C428.7 498.3 471.3 492.7 514.2 494.3C557 496 600 505 642.8 512.5C685.7 520 728.3 526 771.2 527C814 528 857 524 878.5 522L900 520L900 601L878.5 601C857 601 814 601 771.2 601C728.3 601 685.7 601 642.8 601C600 601 557 601 514.2 601C471.3 601 428.7 601 385.8 601C343 601 300 601 257.2 601C214.3 601 171.7 601 128.8 601C86 601 43 601 21.5 601L0 601Z" fill="#d53867"></path><path d="M0 567L21.5 567C43 567 86 567 128.8 567.5C171.7 568 214.3 569 257.2 568.2C300 567.3 343 564.7 385.8 559.2C428.7 553.7 471.3 545.3 514.2 540C557 534.7 600 532.3 642.8 534.7C685.7 537 728.3 544 771.2 550.5C814 557 857 563 878.5 566L900 569L900 601L878.5 601C857 601 814 601 771.2 601C728.3 601 685.7 601 642.8 601C600 601 557 601 514.2 601C471.3 601 428.7 601 385.8 601C343 601 300 601 257.2 601C214.3 601 171.7 601 128.8 601C86 601 43 601 21.5 601L0 601Z" fill="#c62368"></path></svg>