<svg id="visual" viewBox="0 0 900 600" width="900" height="600" xmlns="http://www.w3.org/2000/svg" xmlns:xlink="http://www.w3.org/1999/xlink" version="1.1"><rect x="0" y="0" width="900" height="600" fill="#FFFFFF"></rect><path d="M0 400L21.5 413.3C43 426.7 86 453.3 128.8 456.7C171.7 460 214.3 440 257.2 426.3C300 412.7 343 405.3 385.8 402.3C428.7 399.3 471.3 400.7 514.2 420C557 439.3 600 476.7 642.8 496.8C685.7 517 728.3 520 771.2 504.3C814 488.7 857 454.3 878.5 437.2L900 420L900 601L878.5 601C857 601 814 601 771.2 601C728.3 601 685.7 601 642.8 601C600 601 557 601 514.2 601C471.3 601 428.7 601 385.8 601C343 601 300 601 257.2 601C214.3 601 171.7 601 128.8 601C86 601 43 601 21.5 601L0 601Z" fill="#0066FF" stroke-linecap="round" stroke-linejoin="miter"></path></svg>